<svg version="1.1" 
	xmlns="http://www.w3.org/2000/svg" 
	xmlns:xlink="http://www.w3.org/1999/xlink" 
	x="0px" 
	y="0px" 
	width="100%" 
	viewBox="0 0 860 860" 
	xml:space="preserve">
<path d="M201.000000,21.000000 
	C245.664017,21.000000 289.828278,21.064899 333.991638,20.893782 
	C338.142792,20.877697 339.136658,21.844095 339.108734,26.004692 
	C338.906311,56.168186 338.923767,86.334106 339.097107,116.497971 
	C339.118652,120.243355 338.212952,121.095581 334.489410,121.091454 
	C231.495712,120.977310 128.501831,120.977188 25.508148,121.091782 
	C21.779551,121.095940 20.882046,120.235809 20.903284,116.495529 
	C21.075502,86.164993 21.075859,55.832623 20.902945,25.502092 
	C20.881594,21.756905 21.786102,20.898504 25.510637,20.906979 
	C83.840195,21.039707 142.170135,21.000000 201.000000,21.000000 
z"/>
<path d="M595.000000,21.000000 
	C617.331970,21.000004 639.164490,21.072933 660.995422,20.921198 
	C664.260986,20.898502 665.090637,21.751936 665.076904,25.008308 
	C664.947510,55.672543 664.946289,86.337769 665.078247,117.001984 
	C665.092346,120.278267 664.227905,121.075966 660.985596,121.073044 
	C561.658447,120.983559 462.331177,120.983170 363.004059,121.074303 
	C359.741913,121.077293 358.909210,120.248009 358.923096,116.991661 
	C359.052826,86.494087 359.076050,55.995316 358.902405,25.498178 
	C358.881042,21.744963 359.798492,20.902498 363.514496,20.908369 
	C440.509491,21.030003 517.504761,21.000002 595.000000,21.000000 
z"/>
<path d="M594.000000,360.000000 
	C544.336731,360.000000 495.173309,359.941681 446.010620,360.105469 
	C441.864166,360.119293 440.863007,359.162476 440.891022,354.997681 
	C441.094025,324.834473 441.075806,294.668854 440.903412,264.505249 
	C440.882050,260.766632 441.776855,259.902283 445.507324,259.907623 
	C529.501282,260.027954 613.495605,260.027771 697.489563,259.908051 
	C701.213623,259.902740 702.118347,260.757141 702.096985,264.502136 
	C701.924133,294.832397 701.924561,325.164459 702.096558,355.494720 
	C702.117737,359.233276 701.225220,360.113281 697.492371,360.095642 
	C663.162170,359.933319 628.830933,360.000000 594.000000,360.000000 
z"/>
<path d="M451.000000,140.000000 
	C485.164276,140.000000 518.828857,140.067963 552.492310,139.904266 
	C556.225220,139.886139 557.117737,140.766678 557.096558,144.505234 
	C556.924561,174.835434 556.924194,205.167465 557.097046,235.497665 
	C557.118347,239.242157 556.214355,240.097626 552.489807,240.092056 
	C471.495728,239.971191 390.501404,239.971024 309.507355,240.092453 
	C305.776886,240.098038 304.882172,239.233414 304.903412,235.494812 
	C305.075378,205.164612 305.075806,174.832581 304.902985,144.502380 
	C304.881653,140.757980 305.784515,139.894791 309.510284,139.906128 
	C356.506531,140.049026 403.503326,140.000000 451.000000,140.000000 
z"/>
<path d="M272.000000,719.000000 
	C244.502182,719.000000 217.503815,718.916260 190.507217,719.096924 
	C186.772003,719.121887 185.882324,718.231567 185.903488,714.494202 
	C186.075302,684.164307 186.075760,653.832581 185.903030,623.502686 
	C185.881699,619.758911 186.784378,618.900269 190.509872,618.907349 
	C257.504211,619.034668 324.498901,619.034973 391.493225,618.906982 
	C395.225006,618.899841 396.117676,619.768311 396.096527,623.505737 
	C395.924713,653.835632 395.924255,684.167419 396.096985,714.497314 
	C396.118317,718.241028 395.216858,719.108948 391.489990,719.094666 
	C351.827118,718.942261 312.163452,719.000000 272.000000,719.000000 
z"/>
<path d="M358.068634,480.000000 
	C351.000153,479.999390 351.000061,479.999390 351.000031,473.565094 
	C351.000000,443.900085 351.066956,414.234711 350.913086,384.570496 
	C350.894409,380.966370 351.577026,379.889862 355.442200,379.898315 
	C420.438293,380.040588 485.434875,380.031494 550.431091,379.915802 
	C554.035522,379.909393 555.129395,380.578125 555.105103,384.443878 
	C554.915161,414.607697 554.913940,444.773743 555.102112,474.937561 
	C555.127441,478.993622 554.304993,480.121246 550.049561,480.110596 
	C486.220184,479.950836 422.390289,480.000000 358.068634,480.000000 
z"/>
<path d="M560.000000,708.971558 
	C560.000000,719.000000 560.000000,719.000000 550.522766,719.000000 
	C507.026276,719.000000 463.529541,718.936584 420.033691,719.103516 
	C415.928619,719.119263 414.859406,718.227783 414.888519,714.020813 
	C415.097076,683.858032 415.072113,653.692749 414.906891,623.529358 
	C414.886688,619.840820 415.701691,618.889648 419.483246,618.902283 
	C464.812408,619.053528 510.142395,619.048950 555.471619,618.908569 
	C559.160339,618.897156 560.124390,619.702148 560.099854,623.484375 
	C559.916260,651.814209 560.000000,680.145813 560.000000,708.971558 
z"/>
<path d="M634.000000,480.000000 
	C615.335327,480.000000 597.169800,479.914093 579.006653,480.079254 
	C575.744202,480.108887 574.908997,479.254181 574.922791,475.993927 
	C575.052734,445.331146 575.052917,414.667389 574.922607,384.004608 
	C574.908752,380.741608 575.751343,379.914856 579.007629,379.924042 
	C620.002808,380.039764 660.998596,380.039886 701.993774,379.923889 
	C705.252747,379.914673 706.091003,380.745667 706.077148,384.006012 
	C705.947205,414.668793 705.947083,445.332550 706.077332,475.995331 
	C706.091187,479.258209 705.250671,480.099731 701.992188,480.078217 
	C679.495605,479.929596 656.997559,480.000000 634.000000,480.000000 
z"/>
<path d="M722.000000,283.000000 
	C722.000061,276.000763 722.105225,269.498932 721.945557,263.003601 
	C721.886169,260.590942 722.615417,259.945129 725.009705,259.949677 
	C763.005188,260.021515 801.000977,260.021759 838.996460,259.949188 
	C841.399963,259.944611 842.056763,260.612427 842.050903,263.008545 
	C841.974121,294.338104 841.973816,325.667999 842.051331,356.997559 
	C842.057312,359.402802 841.384766,360.054840 838.990356,360.050323 
	C800.994873,359.978455 762.998901,359.943390 725.003845,360.089172 
	C721.305969,360.103363 722.007812,358.037903 722.006897,355.991760 
	C721.996094,331.827850 722.000000,307.663910 722.000000,283.000000 
z"/>
<path d="M289.000000,184.000000 
	C289.000000,201.664536 288.909790,218.829971 289.079468,235.992844 
	C289.111694,239.254684 288.255646,240.090378 284.994537,240.077148 
	C253.332306,239.948776 221.669144,239.948914 190.006912,240.076935 
	C186.748611,240.090118 185.908875,239.256378 185.922729,235.994751 
	C186.052856,205.332428 186.052673,174.669098 185.922928,144.006775 
	C185.909134,140.748093 186.744141,139.909637 190.005402,139.922852 
	C221.667618,140.051239 253.330780,140.051071 284.993011,139.923065 
	C288.251190,139.909912 289.128876,140.738724 289.080566,144.006042 
	C288.886047,157.168228 289.000000,170.334946 289.000000,184.000000 
z"/>
<path d="M351.000000,355.862793 
	C351.000000,325.379181 351.078033,295.380554 350.908447,265.383331 
	C350.885376,261.300842 351.444855,259.784027 356.131317,259.859528 
	C376.458130,260.187073 396.793945,260.084412 417.124756,259.921997 
	C420.773804,259.892853 422.142273,260.483429 422.113434,264.638092 
	C421.902863,294.968109 421.945740,325.300537 422.077209,355.631439 
	C422.091614,358.956604 421.533447,360.131561 417.855316,360.096680 
	C396.858490,359.897491 375.858459,359.945190 354.860413,360.063599 
	C351.967773,360.079895 350.338837,359.624390 351.000000,355.862793 
z"/>
<path d="M186.000000,562.000000 
	C186.000015,542.336426 186.081238,523.172119 185.921417,504.009827 
	C185.894257,500.754486 186.732880,499.885834 190.002930,499.919891 
	C206.665115,500.093475 223.331055,500.092712 239.993271,499.920410 
	C243.255951,499.886658 244.091034,500.745270 244.077209,504.005707 
	C243.947220,534.666870 243.947662,565.329163 244.076691,595.990356 
	C244.090378,599.243225 243.267456,600.114075 239.997192,600.080078 
	C223.335007,599.906433 206.669052,599.907349 190.006836,600.079590 
	C186.744385,600.113281 185.857346,599.261353 185.919159,595.993164 
	C186.130249,584.832214 186.000000,573.664917 186.000000,562.000000 
z"/>
<path d="M630.999878,236.833801 
	C631.378113,239.608398 630.248047,240.048325 628.169373,240.039932 
	C610.670776,239.969391 593.171570,239.957535 575.673157,240.050629 
	C573.367981,240.062897 572.958557,239.224655 572.962158,237.160675 
	C573.016968,205.662766 573.024475,174.164688 572.950623,142.666870 
	C572.945190,140.355194 573.789551,139.953674 575.845520,139.961685 
	C593.177490,140.029312 610.511536,140.127197 627.840881,139.905304 
	C631.859680,139.853821 630.991211,142.183945 630.992065,144.354172 
	C631.003723,175.018890 631.000000,205.683594 630.999878,236.833801 
z"/>
<path d="M741.769958,120.969597 
	C723.787170,120.997375 706.287537,120.921051 688.789856,121.074005 
	C685.763367,121.100456 684.905396,120.433365 684.919128,117.276779 
	C685.053467,86.445801 685.046448,55.613823 684.927124,24.782719 
	C684.915405,21.745554 685.582886,20.884499 688.730469,20.917299 
	C705.561035,21.092688 722.394348,20.997198 739.226746,21.003923 
	C741.125610,21.004683 743.084595,20.338678 743.071533,23.739157 
	C742.949219,55.570194 743.001282,87.401901 742.965393,119.233360 
	C742.964722,119.803551 742.501221,120.373215 741.769958,120.969597 
z"/>
<path d="M22.000000,766.000000 
	C22.000072,757.667908 22.091471,749.834106 21.945625,742.004761 
	C21.900759,739.596191 22.610256,738.934143 25.008144,738.947693 
	C42.338161,739.045532 59.669247,739.046143 76.999245,738.947083 
	C79.408119,738.933350 80.056427,739.619324 80.050591,742.011292 
	C79.974159,773.339417 79.973778,804.667908 80.051117,835.996033 
	C80.057045,838.398865 79.389961,839.065918 76.991951,839.052368 
	C59.661938,838.954529 42.329712,838.883301 25.001677,839.092773 
	C21.294802,839.137634 22.008562,837.031311 22.007500,834.989136 
	C21.995636,812.159424 22.000004,789.329712 22.000000,766.000000 
z"/>
</svg>